<svg id="Capa_1" data-name="Capa 1" xmlns="http://www.w3.org/2000/svg" width="126.76" height="116.4" viewBox="0 0 126.76 116.4">
  <defs>
    <style>
      .cls-1 {
        fill: #fff;
      }
    </style>
  </defs>
  <g>
    <path class="cls-1" d="M36.62,44.54c2.88-.88,5.7-2.12,8.64-2.54s6.26,0,9.4-.13c4.35-.21,6.76,1.69,7.63,6,1,5,2.3,9.95,3.64,15.62h89.45c7.73,0,9.1,1.72,7.28,9.2-3.33,13.62-6.81,27.2-10,40.85-1.1,4.72-3.59,6.39-8.36,6.36q-33.93-.24-67.88,0c-5.05,0-7.33-1.86-8.46-6.8-4.66-20.41-9.69-40.74-14.56-61-5.48-2.24-12.22,2.22-16.79-3.56Zm107,65.61L152.7,73.4H68.34c2.74,11.56,5.33,22.8,8.17,34A4.43,4.43,0,0,0,79.73,110C100.87,110.19,122,110.15,143.62,110.15Z" transform="translate(-36.62 -41.8)"/>
    <path class="cls-1" d="M79.83,126.67A15.52,15.52,0,0,1,95.4,142.52,15.71,15.71,0,0,1,79.56,158.2,15.93,15.93,0,0,1,63.9,142.25,15.72,15.72,0,0,1,79.83,126.67Zm-.65,22A6.33,6.33,0,1,0,79.73,136a6.41,6.41,0,0,0-6.31,6.31A6.16,6.16,0,0,0,79.18,148.68Z" transform="translate(-36.62 -41.8)"/>
    <path class="cls-1" d="M152.9,142.23a15.7,15.7,0,0,1-15.45,16,16,16,0,0,1-16.12-15.9,15.81,15.81,0,0,1,15.82-15.61A15.52,15.52,0,0,1,152.9,142.23Zm-16.29,6.45a6.33,6.33,0,1,0,.65-12.64,6.37,6.37,0,0,0-6.33,6.26C131,146.21,133.35,148.18,136.61,148.68Z" transform="translate(-36.62 -41.8)"/>
  </g>
</svg>
