<svg id="Capa_1" data-name="Capa 1" xmlns="http://www.w3.org/2000/svg" width="180.53" height="36.42" viewBox="0 0 180.53 36.42">
  <defs>
    <style>
      .cls-1 {
        fill: #fff;
      }
    </style>
  </defs>
  <g>
    <path class="cls-1" d="M54.15,104.09a11.74,11.74,0,0,1-.2-1.52q0-9,0-18.08A13,13,0,0,1,54.11,83c.58-.05,1-.13,1.5-.13,2.18,0,4.36,0,6.54,0a8.35,8.35,0,0,1,8.05,5.21c1.5,3.41.7,6.5-1.74,9.22a5.36,5.36,0,0,1-.69.54l3,6.14a16.45,16.45,0,0,1-4.37.2l-2.23-4.3H58.24L58.05,104A9.49,9.49,0,0,1,54.15,104.09Zm4.06-7.87c1.43,0,2.69,0,4,0a4.59,4.59,0,0,0,4.52-3.69c.45-2.63-.58-4.59-2.86-5.52-1.83-.76-3.7-.56-5.62-.45Z" transform="translate(-7.72 -75.29)"/>
    <path class="cls-1" d="M153.07,82.88h1.73c2.08,0,4.15,0,6.23,0a8.22,8.22,0,0,1,7.82,4.81,8,8,0,0,1-1,9.07c-.33.41-.68.81-1.09,1.29.94,1.92,1.88,3.86,2.88,5.93-1.46.47-2.81.14-4.17.25-1.24-1.23-1.49-3-2.45-4.32h-6v4a9.26,9.26,0,0,1-3.88.16,9,9,0,0,1-.22-1.2q0-9.37,0-18.74A10.78,10.78,0,0,1,153.07,82.88ZM157,96.22c1.5,0,2.82,0,4.14,0A4.78,4.78,0,0,0,163,87.14a11.26,11.26,0,0,0-6-.56Z" transform="translate(-7.72 -75.29)"/>
    <path class="cls-1" d="M172.67,83h15.05a9.33,9.33,0,0,1,.08,3.57,12,12,0,0,1-3.62.2c-1.23.05-2.45,0-3.68,0h-3.73v6.89h8.54c.64,1.21.3,2.28.28,3.55-3,.11-5.84,0-8.8.07v3c1.85.09,3.74,0,5.63,0s3.7,0,5.6,0a8.94,8.94,0,0,1,.11,3.55c-1.1.39-13.16.51-15.44.14a8.17,8.17,0,0,1-.2-1.28q0-9.21,0-18.42A10.58,10.58,0,0,1,172.67,83Z" transform="translate(-7.72 -75.29)"/>
    <path class="cls-1" d="M88.14,104.16l-1-2.13H77l-1,2a10.68,10.68,0,0,1-3.68.13c-.47-.82,0-1.38.21-1.93,2-5,4.06-10.09,6.1-15.13.55-1.36,1.11-2.72,1.68-4.11h3.23c.89,1.33,8.25,19.71,8.38,21C90.76,104.5,89.52,104.16,88.14,104.16Zm-9.88-5.81H85.8C84.57,95.17,83.48,92,82,88.62Z" transform="translate(-7.72 -75.29)"/>
    <path class="cls-1" d="M95.07,82.91c2.91,0,5.58-.2,8.2,0a8.84,8.84,0,0,1,7.59,8,8.64,8.64,0,0,1-6.56,9,14.93,14.93,0,0,1-2.84.26c-.74,0-1.47,0-2.38,0V104a9.7,9.7,0,0,1-4,.16,12.19,12.19,0,0,1-.2-1.58q0-9,0-17.92A16.94,16.94,0,0,1,95.07,82.91Zm4.08,3.56V96.54c1,0,1.86,0,2.74,0a4.91,4.91,0,0,0,5-5,5,5,0,0,0-4.68-5.1C101.22,86.39,100.26,86.47,99.15,86.47Z" transform="translate(-7.72 -75.29)"/>
    <path class="cls-1" d="M145.61,83a18,18,0,0,1,4.1,0c-.06,1.25-6.62,18-8.15,21a6,6,0,0,1-3.33.16l-8.49-21a15.55,15.55,0,0,1,4.45-.16q1.38,3.67,2.78,7.37c.93,2.46,1.85,4.93,3.06,7.43q1.36-3.65,2.74-7.31C143.7,88,144.64,85.51,145.61,83Z" transform="translate(-7.72 -75.29)"/>
    <path class="cls-1" d="M122.55,104.14h-3.9c-.07-.66-.18-1.26-.19-1.86q0-6.81,0-13.63V86.77h-5.82a6.28,6.28,0,0,1-.18-3.62c1.29-.36,14.63-.39,16.17,0a9.39,9.39,0,0,1,0,3.51c-1.9.3-3.81,0-5.89.2,0,.54-.06,1.1-.06,1.65,0,4.6,0,9.2,0,13.8C122.67,102.83,122.6,103.39,122.55,104.14Z" transform="translate(-7.72 -75.29)"/>
    <path class="cls-1" d="M19.9,91.17c3.78.06,7.42-.1,11.24.11a31.13,31.13,0,0,1-2.54,4.59H22.42l-3.27,5.51,2.7,4.8a59.81,59.81,0,0,1-10.68.09C14,101.21,16.92,96.26,19.9,91.17Z" transform="translate(-7.72 -75.29)"/>
    <path class="cls-1" d="M37.68,90.88l-5.75,9.9-2.65-4.53,3-5.33L29,85.22H23.71C24,84,27.86,77.16,29,75.9Z" transform="translate(-7.72 -75.29)"/>
    <path class="cls-1" d="M29,106.36l-5.62-9.71a45.81,45.81,0,0,1,5.2-.09l3.17,5.29h6.51L41.11,97c1.91,3.14,3.69,6.09,5.37,9.32Z" transform="translate(-7.72 -75.29)"/>
    <path class="cls-1" d="M46.58,107.26,44,111.71H26.57A45.21,45.21,0,0,1,29,107.27a9.66,9.66,0,0,1,1.39-.19q7.48,0,15,0A10.6,10.6,0,0,1,46.58,107.26Z" transform="translate(-7.72 -75.29)"/>
    <path class="cls-1" d="M7.72,101.6l8.76-15.1c1.24,1.35,1.74,2.93,2.79,4.31l-8.75,15.12C9.26,104.6,8.73,103.05,7.72,101.6Z" transform="translate(-7.72 -75.29)"/>
    <path class="cls-1" d="M43.55,90.5H38.32L29.65,75.62a12,12,0,0,1,5.24-.08Z" transform="translate(-7.72 -75.29)"/>
    <path class="cls-1" d="M28.44,106.77l-2.69,4.65-5.76-10,2.62-4.54C24.73,100.22,26.44,103.47,28.44,106.77Z" transform="translate(-7.72 -75.29)"/>
    <path class="cls-1" d="M38.31,91.27H43.5c-1.74,3.4-3.71,6.48-5.55,9.75H32.66C34.53,97.6,36.4,94.45,38.31,91.27Z" transform="translate(-7.72 -75.29)"/>
    <path class="cls-1" d="M28.72,86.12c.72,1.25,1.41,2.44,2.09,3.64a3.52,3.52,0,0,1,.19.7H19.81l-2.47-4.34Z" transform="translate(-7.72 -75.29)"/>
  </g>
</svg>
